<svg xmlns="http://www.w3.org/2000/svg" width="24" height="24" fill="none"><path fill="#130F40" d="M22.2 7.5c0-1.1-.3-2.2-1-3.2a5.6 5.6 0 0 0-4.7-2.5h-9c-1.2 0-2.3.3-3.2 1a5.7 5.7 0 0 0-2.5 4.7v9c0 1.2.4 2.4 1.2 3.5C4 21.5 5.7 22 7.6 22.2h8.8c1 0 2-.2 3-.8 1.9-1 2.7-2.8 2.8-4.9v-9Zm-1.9 9.2c-.1 2.1-1.5 3.5-3.6 3.6-3.1.2-6.3.2-9.4 0-2.1-.1-3.4-1.5-3.6-3.6L3.6 12V7.4C4 5.2 5.3 3.8 7.4 3.7c3.1-.2 6.2-.2 9.3 0 2.2.1 3.6 1.5 3.7 3.6a83 83 0 0 1 0 9.4Z"/><path fill="#130F40" d="M12 6.7a5.3 5.3 0 1 0 0 10.6 5.3 5.3 0 0 0 0-10.6Zm0 8.7a3.4 3.4 0 0 1 0-6.8 3.4 3.4 0 1 1 0 6.8ZM17.5 5.3c-.7 0-1.2.5-1.2 1.2s.5 1.2 1.1 1.3c.7 0 1.3-.6 1.3-1.3 0-.6-.5-1.2-1.2-1.2Z"/></svg>