<svg xmlns="http://www.w3.org/2000/svg" width="24" height="24" fill="none"><g clip-path="url(#a)"><path fill="#000" d="M18.3 18.3h-2.6v-4.1c0-1 0-2.3-1.4-2.3s-1.6 1-1.6 2.2v4.2H10V9.7h2.6V11c.4-.7 1.2-1.4 2.5-1.4 2.7 0 3.2 1.8 3.2 4.1v4.7ZM7 8.6a1.5 1.5 0 1 1 0-3.1 1.5 1.5 0 0 1 0 3Zm1.3 9.7H5.7V9.7h2.6v8.6ZM19.7 3H4.3C3.6 3 3 3.6 3 4.3v15.4c0 .7.6 1.3 1.3 1.3h15.4c.7 0 1.3-.6 1.3-1.3V4.3c0-.7-.6-1.3-1.3-1.3Z"/></g><defs><clipPath id="a"><path fill="#fff" d="M0 0h24v24H0z"/></clipPath></defs></svg>