<svg xmlns="http://www.w3.org/2000/svg" width="769" height="321" fill="none"><g clip-path="url(#a)"><path fill="#F2F2F2" d="M228.8 264.3c-2.7 19.6-12.4 37.6-22.8 55a82 82 0 0 1-1 1.7H97.2a120.6 120.6 0 0 1-40.5-17.6C17 276.3 1.7 225 8.7 179.2c4.2-28.5 17.4-57.6 43.1-73a67.8 67.8 0 0 1 46.6-7.7l1.3.2a48.1 48.1 0 0 1 32.2 21.5c12.2 20.6 5 46.2-1.1 69.1-6 23-9.3 50.5 8.2 67.4a42 42 0 0 1 13.6-46 47.8 47.8 0 0 1 50.3-4.5c20.5 10.9 28.8 36 25.9 58.1Z"/><path fill="#fff" d="m164.9 319.2 9 1.8h-16.3a157 157 0 0 1-20-6.5c-18-7.1-34.6-17.9-47.2-32.2A90.3 90.3 0 0 1 68 229.8a199 199 0 0 1 4.4-62.5 251.6 251.6 0 0 1 25.5-68.6l.6-.2c.4-.1.9 0 1.3.2s.7.6.9 1c.1.5 0 1-.2 1.4a249.5 249.5 0 0 0-22.8 59c-5 19.9-7.7 40.8-6.8 61.3 1 19.1 6.2 38 18.2 53.7 11 14.3 26 25.5 42.8 33.2 10.5 4.8 21.6 8.5 33 11ZM200.6 321h-4.8l-1.5-1.8a90.4 90.4 0 0 1-3.6-117.3l3.7 1a87.9 87.9 0 0 0-16 80.6 91.2 91.2 0 0 0 22.2 37.5Z"/><path fill="#F2F2F2" d="M633.5 306c.7 5.2 3.3 10 6 14.5 0 .2.2.3.3.5h28.4l1.7-.5c3.3-.9 6.3-2.3 9-4.2 10.5-7.1 14.5-20.6 12.7-32.7-1.1-7.6-4.6-15.2-11.4-19.3-3.7-2.1-8-2.8-12.3-2h-.3a13 13 0 0 0-8.5 5.7c-3.3 5.4-1.3 12.2.3 18.2 1.5 6.1 2.4 13.4-2.2 17.8a10.6 10.6 0 0 0-2.4-11 12.3 12.3 0 0 0-14.5-2.3c-5.4 2.9-7.6 9.5-6.8 15.3Z"/><path fill="#fff" d="m650.4 320.5-2.4.5h4.3a41.6 41.6 0 0 0 5.3-1.7c4.8-1.9 9-4.8 12.4-8.5a23.8 23.8 0 0 0 6-13.9 66.4 66.4 0 0 0-8-34.7l-.4.1-.3.3v.4a65.8 65.8 0 0 1 7.9 31.7 25 25 0 0 1-4.8 14.2c-3 3.7-6.8 6.8-11.3 8.8a42.9 42.9 0 0 1-8.7 2.8ZM641 321h1.2l.4-.5a23.9 23.9 0 0 0 1-31l-1 .3a23.2 23.2 0 0 1-1.7 31.2Z"/><path fill="#2F80ED" d="M377 187h-89l-.9-26a7.4 7.4 0 0 1 2.7-6 8.3 8.3 0 0 1 6.5-2l51.8 6c7.7 0 15 3 20.5 8.1a26.8 26.8 0 0 1 8.5 19.4v.5Z"/><path fill="#CCC" d="M337.4 94.9h-62a6.6 6.6 0 0 0-4.5 1.7 6 6 0 0 0-1.9 4.2v59a5.7 5.7 0 0 0 1.9 4.2 6.3 6.3 0 0 0 4.4 1.7h62.1a6.6 6.6 0 0 0 4.5-1.7 6 6 0 0 0 1.8-4.3v-58.9a5.7 5.7 0 0 0-1.8-4.2 6.3 6.3 0 0 0-4.5-1.7Z"/><path fill="#3F3D56" d="m323.4 139-29.3 5.3a7 7 0 0 1-5-1 6.3 6.3 0 0 1-2.8-4l-2.3-11a6 6 0 0 1 1-4.7c1-1.4 2.6-2.4 4.3-2.7l29.3-5.4a7 7 0 0 1 5 1c1.5 1 2.5 2.4 2.8 4l2.3 11a6 6 0 0 1-1 4.7 6.7 6.7 0 0 1-4.3 2.7Z"/><path fill="#fff" d="m317.6 126-22.4 4c-.4.2-.9 0-1.2-.1-.3-.3-.6-.6-.7-1 0-.4 0-.8.3-1.1.2-.3.6-.6 1-.6L317 123c.4 0 .8 0 1.1.2.4.3.6.6.7 1 0 .4 0 .8-.2 1.1-.3.3-.6.6-1 .6ZM313.2 132l-11.6 2.2c-.4 0-.8 0-1.1-.2-.4-.2-.6-.6-.7-1 0-.4 0-.8.2-1 .3-.4.6-.6 1-.7l11.6-2.2a1.7 1.7 0 0 1 1.2.3 1.5 1.5 0 0 1 .6 1 1.4 1.4 0 0 1-.2 1l-.4.4-.6.3Z"/><path fill="#B3B3B3" d="M343.7 100.8v7.9H269v-7.9a5.7 5.7 0 0 1 1.9-4.2 6.3 6.3 0 0 1 4.4-1.7h62.1a6.6 6.6 0 0 1 4.5 1.7 6 6 0 0 1 1.8 4.2Z"/><path fill="#FFB8B8" d="M492.8 111.1a9.3 9.3 0 0 0-2.1-3.5 10 10 0 0 0-7.8-3.1c-1.5 0-2.9.4-4.2 1l-85.4-29-3.8 20.2 85.2 22.2a10 10 0 0 0 5.6 4.2c2.3.7 4.9.5 7-.5 2.3-1 4.1-2.6 5.1-4.7a9 9 0 0 0 .4-6.8Z"/><path fill="#000" d="M492.8 111.1a9.3 9.3 0 0 0-2.1-3.5 10 10 0 0 0-7.8-3.1c-1.5 0-2.9.4-4.2 1l-85.4-29-3.8 20.2 85.2 22.2a10 10 0 0 0 5.6 4.2c2.3.7 4.9.5 7-.5 2.3-1 4.1-2.6 5.1-4.7a9 9 0 0 0 .4-6.8Z" opacity=".2"/><path fill="#2F80ED" d="m408.4 80.1-8 20c-.2.6-.6 1.1-1 1.5a4.5 4.5 0 0 1-3.6 1.2c-.6 0-1.2-.2-1.8-.5l-19.6-10.5c-3-1-5.5-3.3-6.8-6.2-1.4-2.8-1.4-6-.3-9a12 12 0 0 1 6.6-6.5 13 13 0 0 1 9.5-.2l21.8 4.6c.7.1 1.3.4 1.8.7.5.4 1 .9 1.2 1.4a4 4 0 0 1 .2 3.5ZM499.5 129.6 469 142.8l4 14.4c7.8 27.7 9.9 56.6 6.1 85l22.4 4.5 18.5-45-6.5-51-13.9-21Z"/><path fill="#3F3D56" d="M559.6 196c-20.1 0-36.5 14-37.3 31.3h74.6c-.8-17.4-17.2-31.2-37.3-31.2Z"/><path fill="#3F3D56" d="M544 199c-1.1-78.3-48.2-71.1-48.2-71.1s.9 24.4 1.3 25.1c30 53.9-19.5 117-82.5 105.4l-3.4-.7c-8-1.6-15-6-19.7-12.3a29.2 29.2 0 0 1-5.5-21.8c6.2-47.3-24.7-46.5-24.7-46.5h-45.1l-23.5-20a7 7 0 0 0-6.2-1.4 7 7 0 0 0-2.9 1.4c-.8.7-1.4 1.6-1.8 2.6l-3 7.8s-44.6 4.4-40.9 45.7h13.8c0 1.2 0 2.4.2 3.5l102.7-.8c6 0 11.3 4.6 11.4 10.3a9.9 9.9 0 0 1-3.4 7.5 11 11 0 0 1-8 3l-16.5-.6c-5 21.5 7.4 36 21.2 45.2 13 8.5 28.5 13 44.2 12.9h45c58.5 0 68.7-46.7 68.7-46.7 30.6-12.3 26.7-48.4 26.7-48.4Z"/><path fill="#3F3D56" d="M556.8 319.7a50.9 50.9 0 0 0 52.2-49.5 50.9 50.9 0 0 0-52.2-49.5 50.9 50.9 0 0 0-52.2 49.5 50.9 50.9 0 0 0 52.2 49.5Z"/><path fill="#fff" d="M556.8 282.3c7 0 12.8-5.4 12.8-12.1 0-6.7-5.7-12.1-12.8-12.1-7 0-12.8 5.4-12.8 12 0 6.8 5.8 12.2 12.8 12.2Z"/><path fill="#3F3D56" d="M293.4 319.7c33.1 0 60-25.5 60-57s-26.9-57-60-57c-33.2 0-60 25.5-60 57s26.8 57 60 57Z"/><path fill="#fff" d="M293.4 276.7c8.1 0 14.7-6.3 14.7-14s-6.6-14-14.7-14c-8.2 0-14.8 6.3-14.8 14s6.6 14 14.8 14Z"/><path fill="#3F3D56" d="m469 146.7-11-28.3a11.4 11.4 0 0 1 3.3-13c1.2-1 2.6-2 4.2-2.5l31.6-11a23.4 23.4 0 0 1 24 5.5 21 21 0 0 1 6 14.3 21.5 21.5 0 0 1-14.6 19.8L469 146.7Z"/><path fill="#2F80ED" d="M526.6 111.7a21 21 0 0 1-8.2 16.1 26.6 26.6 0 0 1-18-14.2 25.3 25.3 0 0 1-.3-22 23 23 0 0 1 18.3 4c2.6 2 4.6 4.4 6 7.2 1.4 2.8 2.2 5.8 2.2 9ZM245.8 219c7.2 0 13-6.8 13-15 0-8.3-5.8-15-13-15-7.1 0-13 6.7-13 15 0 8.2 5.9 15 13 15Z"/><path fill="#FFB8B8" d="M417.5 257h11.4l5.4-28h-16.8v28Z"/><path fill="#2F2E41" d="M414.6 253.4H437a15 15 0 0 1 10 4 13.5 13.5 0 0 1 4.3 9.5v.5h-36.7v-14ZM430.7 245.4h-.4l-15.7-1c-.7-.1-1.3-.3-1.8-.6a4 4 0 0 1-1.4-1.3 3.8 3.8 0 0 1-.4-3.5l21-44.9a3 3 0 0 0 0-2.4 3 3 0 0 0-2.1-1.6c-10-2.4-35.4-9-57.4-16.6-9.4-3.3-15.3-8-17.6-14a19 19 0 0 1 1.6-15.7l.2-.2 20.7 1.8 22.4 1.8 49.2 25a18 18 0 0 1 8.8 9.8c1.5 4.2 1.3 8.8-.6 12.9L434.5 243a4 4 0 0 1-1.5 1.7c-.7.4-1.5.6-2.3.6Z"/><path fill="#FFB8B8" d="M381 56.6c12.6 0 22.8-9.7 22.8-21.7 0-11.9-10.2-21.6-22.8-21.6A22.2 22.2 0 0 0 358.2 35c0 12 10.2 21.7 22.8 21.7ZM411 259.6h11.4l5.4-28H411v28Z"/><path fill="#2F2E41" d="M408.1 256h22.4a15 15 0 0 1 10 4 13.5 13.5 0 0 1 4.3 9.6v.4H408v-14ZM424.2 248h-.4l-15.7-1c-.7 0-1.3-.3-1.8-.6a4 4 0 0 1-1.4-1.3 3.8 3.8 0 0 1-.4-3.4l21.1-45a3 3 0 0 0-.2-2.4 3 3 0 0 0-.8-1l-1.2-.5c-10-2.5-35.4-9-57.4-16.7-9.4-3.2-15.3-8-17.6-14a19 19 0 0 1 1.6-15.6l.2-.3 20.7 1.8 22.4 1.8 49.2 25a18 18 0 0 1 8.8 9.9c1.5 4.2 1.3 8.7-.6 12.8L428 245.7a4 4 0 0 1-1.5 1.7c-.7.5-1.5.7-2.3.7Z"/><path fill="#2F80ED" d="m388 68.8-24.1-8S348.7 72 356 99.4a64.5 64.5 0 0 1-5.6 47.4s27 30.8 52 7.9l-9.8-44.4S408 80.7 388 68.8Z"/><path fill="#2F2E41" d="M383.8 57.3c-3.2-4.6-5.8-11-2.2-15.4 3.5-4.3 10.5-3.7 15.8-5.6 7.6-2.6 12-11 10.6-18.5a22.4 22.4 0 0 0-15.3-16.3C385-1 376.6-.2 369.2 2.7A35 35 0 0 0 349 22.2a25.1 25.1 0 0 0 5.3 26.2c7.2 7.3 18.7 9.2 29.3 9.1"/><path fill="#2F2E41" d="M362.6 18c-4 3.2-10.3 1.8-14.7-1-4.4-2.8-8-6.7-12.7-8.9-8.3-3.8-18.5-1.3-26.6 3-8.1 4.2-15.4 10-24 13.4-8.6 3.3-19.5 3.5-26-2.8a21.5 21.5 0 0 0-.4 13.7c1.3 4.4 4.1 8.4 8 11.3a24.6 24.6 0 0 0 27.3 1.7c9.4-5.4 14.7-16.8 25.2-19.8 5.9-1.7 12.2-.4 18 1.1 6 1.4 12.1 3 18.1 1.8 6-1.3 11.6-6.3 10.8-12l-3-1.5Z"/><path fill="#FFB8B8" d="M491.7 110.2a9.5 9.5 0 0 0-2.6-3.2 10.1 10.1 0 0 0-8.1-2.2c-1.5.2-2.8.8-4 1.5l-88.6-18.8-1.1 20.5 87.4 12c1.5 2 3.7 3.1 6.1 3.6 2.4.4 4.9 0 7-1.3 2-1.2 3.6-3.1 4.4-5.3a9 9 0 0 0-.5-6.8Z"/><path fill="#2F80ED" d="m404 89.4-5.5 20.7c-.1.6-.4 1.2-.8 1.7l-1.5 1.1a4.7 4.7 0 0 1-3.7.2l-20.8-8.1c-3.2-.8-6-2.7-7.6-5.4a11.3 11.3 0 0 1-1.4-9c.8-3 2.8-5.5 5.6-7.1a13 13 0 0 1 9.4-1.4l22.3 2a4.6 4.6 0 0 1 3.2 1.8 4.1 4.1 0 0 1 .7 3.5ZM481.4 126.5c3.6 0 6.5-2.7 6.5-6.1 0-3.4-2.9-6.2-6.5-6.2a6.3 6.3 0 0 0-6.4 6.2c0 3.4 2.9 6.1 6.4 6.1Z"/><path fill="#3F3D56" d="M769 320.1c0 .3-.1.5-.3.6a1 1 0 0 1-.6.3H.9a1 1 0 0 1-.6-.3.9.9 0 0 1-.3-.6l.3-.6c.1-.2.4-.3.6-.3h767.2c.2 0 .5.1.6.3l.3.6Z"/></g><defs><clipPath id="a"><path fill="#fff" d="M0 0h769v321H0z"/></clipPath></defs></svg>