<svg xmlns="http://www.w3.org/2000/svg" width="45" height="46" fill="none"><path fill="#000" d="M43.046 21.277v10.098c0 .324-.022.641-.066.953a7.059 7.059 0 0 1-3.471 5.173l-13.04 7.53a7.078 7.078 0 0 1-7.073 0l-13.043-7.53a7.064 7.064 0 0 1-3.535-6.125v-10.1c0-.32.022-.637.063-.952l8.174 4.748-.006.003 1.462.846.173.098.013.009.704.408 1.115.64 4.888 2.824a7.057 7.057 0 0 0 7.054 0l4.011-2.314.014-.008.866-.501 1.111-.644 2.355-1.358-.014-.008 8.18-4.75c.043.313.065.636.065.96Z"/><path fill="#000" d="M43.046 21.277v10.098c0 .324-.022.641-.066.953a7.059 7.059 0 0 1-3.471 5.173l-13.04 7.53a7.078 7.078 0 0 1-7.073 0l-13.043-7.53a7.064 7.064 0 0 1-3.535-6.125v-10.1c0-.32.022-.637.063-.952l8.174 4.748-.006.003 1.462.846.173.098.013.009.704.408 1.115.64 4.888 2.824a7.057 7.057 0 0 0 7.054 0l4.011-2.314.014-.008.866-.501 1.111-.644 2.355-1.358-.014-.008 8.18-4.75c.043.313.065.636.065.96Zm1.796-5.997a7.725 7.725 0 0 0-3.793-5.64L26.796 1.41a7.72 7.72 0 0 0-7.73 0L4.813 9.64a7.735 7.735 0 0 0-3.867 6.694v3.418a7.736 7.736 0 0 1 3.866-6.695L18.87 4.942a8.123 8.123 0 0 1 8.123 0l14.056 8.115a7.726 7.726 0 0 1 3.793 5.644c.05.344.074.695.074 1.051v-3.418c0-.355-.024-.706-.073-1.054Z"/><path fill="#000" d="M21.47 10.448c0-.265.137-.504.366-.635l1.657-.956a.743.743 0 0 1 .737-.002l1.41.816a.72.72 0 0 1 .37.635.732.732 0 0 1-.367.638l-1.656.958a.732.732 0 0 1-.737 0l-1.413-.815a.731.731 0 0 1-.367-.639Zm5.622 6.027-8.03-4.635a.737.737 0 0 0-.736 0l-1.64.947a.724.724 0 0 0-.367.635c0 .266.137.504.37.638l7.547 4.357c.413.238.912.613.929 1.03.013.325-.258.649-.806.963a3.81 3.81 0 0 1-2.018.512 4.277 4.277 0 0 1-2.103-.591l-7.94-4.584a.737.737 0 0 0-.737 0l-1.657.956a.723.723 0 0 0-.366.635c0 .265.137.504.37.638l7.634 4.406c1.284.745 2.768 1.12 4.42 1.12.082 0 .167 0 .249-.003 1.744-.036 3.316-.452 4.671-1.235 1.413-.819 2.166-1.785 2.235-2.878.075-1.114-.607-2.092-2.025-2.91Zm8.872-.846-7.827-4.515a.736.736 0 0 0-.739-.003l-1.654.956a.736.736 0 0 0-.367.588l-.002.05c0 .227.104.44.282.577.016.014.032.025.046.036.017.01.03.019.041.024l7.837 4.522c.11.06.227.09.35.09a.786.786 0 0 0 .37-.095l1.657-.96a.733.733 0 0 0 .006-1.27Z"/></svg>