<svg xmlns="http://www.w3.org/2000/svg" width="146" height="50" fill="none"><path fill="#000" d="M72.4 28.9 62.6 8.5h-5.2v32.7h5.2V19.4l8 15.9h3.7l7.8-16v21.9h5.2V8.5H82L72.4 29ZM102 17.7a9.8 9.8 0 0 0-7.2 2.7c-2.2 2.3-2.8 5.2-2.8 9.1 0 4 .6 7 2.8 9.2a9.8 9.8 0 0 0 7.2 2.8 10 10 0 0 0 7.2-2.8c2.3-2.3 2.9-5.2 2.9-9.2 0-3.9-.6-6.8-2.9-9a10 10 0 0 0-7.2-2.8Zm3.6 18.2a5 5 0 0 1-3.6 1.4 5 5 0 0 1-3.5-1.4c-1.5-1.4-1.7-3.8-1.7-6.4 0-2.5.2-5 1.7-6.3.9-.9 2-1.4 3.5-1.4a5 5 0 0 1 3.6 1.4c1.4 1.4 1.6 3.8 1.6 6.3 0 2.6-.2 5-1.6 6.4ZM127.4 17.7c-2.4 0-4.7.8-6.4 2.6v-2.4h-4.7v23.3h4.8V27c0-3.6 2.3-5.2 5-5.2s4.9 1.6 4.9 5.2v14.2h4.8V26.3c0-2.6-.6-4.8-2.4-6.5a8.5 8.5 0 0 0-6-2.1ZM145.7 18H141v23.2h4.8V17.9ZM145.9 9.6h-5.2v5h5.2v-5Z"/><path fill="#000" fill-rule="evenodd" d="M50 50H0V0h50v50ZM45 5H5v40h40V5ZM29 21.6l7.1 7.1v9.8h-5V27.2H19v11.3h-5v-27h5v10.1H29Z" clip-rule="evenodd"/></svg>