<svg xmlns="http://www.w3.org/2000/svg" width="136" height="46" fill="none"><path fill="#000" d="M43.046 21.277v10.098c0 .324-.022.641-.066.953a7.059 7.059 0 0 1-3.471 5.173l-13.04 7.53a7.078 7.078 0 0 1-7.073 0l-13.043-7.53a7.064 7.064 0 0 1-3.535-6.125v-10.1c0-.32.022-.637.063-.952l8.174 4.748-.006.003 1.462.846.173.098.013.009.704.408 1.115.64 4.888 2.824a7.057 7.057 0 0 0 7.054 0l4.011-2.314.014-.008.866-.501 1.111-.644 2.355-1.358-.014-.008 8.18-4.75c.043.313.065.636.065.96Z"/><path fill="#000" d="M43.046 21.277v10.098c0 .324-.022.641-.066.953a7.059 7.059 0 0 1-3.471 5.173l-13.04 7.53a7.078 7.078 0 0 1-7.073 0l-13.043-7.53a7.064 7.064 0 0 1-3.535-6.125v-10.1c0-.32.022-.637.063-.952l8.174 4.748-.006.003 1.462.846.173.098.013.009.704.408 1.115.64 4.888 2.824a7.057 7.057 0 0 0 7.054 0l4.011-2.314.014-.008.866-.501 1.111-.644 2.355-1.358-.014-.008 8.18-4.75c.043.313.065.636.065.96Zm1.796-5.997a7.725 7.725 0 0 0-3.793-5.64L26.796 1.41a7.72 7.72 0 0 0-7.73 0L4.813 9.64a7.735 7.735 0 0 0-3.867 6.694v3.418a7.736 7.736 0 0 1 3.866-6.695L18.87 4.942a8.123 8.123 0 0 1 8.123 0l14.056 8.115a7.726 7.726 0 0 1 3.793 5.644c.05.344.074.695.074 1.051v-3.418c0-.355-.024-.706-.073-1.054Z"/><path fill="#000" d="M21.47 10.448c0-.265.137-.504.366-.635l1.657-.956a.743.743 0 0 1 .737-.002l1.41.816a.72.72 0 0 1 .37.635.732.732 0 0 1-.367.638l-1.656.958a.732.732 0 0 1-.737 0l-1.413-.815a.731.731 0 0 1-.367-.639Zm5.622 6.027-8.03-4.635a.737.737 0 0 0-.736 0l-1.64.947a.724.724 0 0 0-.367.635c0 .266.137.504.37.638l7.547 4.357c.413.238.912.613.929 1.03.013.325-.258.649-.806.963a3.81 3.81 0 0 1-2.018.512 4.277 4.277 0 0 1-2.103-.591l-7.94-4.584a.737.737 0 0 0-.737 0l-1.657.956a.723.723 0 0 0-.366.635c0 .265.137.504.37.638l7.634 4.406c1.284.745 2.768 1.12 4.42 1.12.082 0 .167 0 .249-.003 1.744-.036 3.316-.452 4.671-1.235 1.413-.819 2.166-1.785 2.235-2.878.075-1.114-.607-2.092-2.025-2.91Zm8.872-.846-7.827-4.515a.736.736 0 0 0-.739-.003l-1.654.956a.736.736 0 0 0-.367.588l-.002.05c0 .227.104.44.282.577.016.014.032.025.046.036.017.01.03.019.041.024l7.837 4.522c.11.06.227.09.35.09a.786.786 0 0 0 .37-.095l1.657-.96a.733.733 0 0 0 .006-1.27Zm45.942 9.501c-.387-.473-1.183-.761-2.314-.843a76.46 76.46 0 0 1-1.125 2.604c-1.181 2.405-2.29 5.11-3.394 8.284-.945 2.836-1.114 5.096-.5 6.71.345.833 1.385 1.212 3.1 1.123a10.71 10.71 0 0 1 .074-2.643l.01-.055c.605-2.696 1.538-5.557 2.776-8.52.543-1.41 1.166-3.06 1.642-4.532.185-.97.094-1.686-.27-2.128Zm2.394-7.954a2.404 2.404 0 0 0-.793-.141c-.652 0-1.293.294-2.002.902-.465.471-.748 1.045-.811 1.676-.078 1.458.465 1.772 1.028 1.966.868.27 1.762.01 2.72-.802.484-.494.769-1.07.87-1.762.109-1.318-.525-1.682-1.011-1.84Zm20.256 2.487c-.92-.627-2.194-.72-3.793-.277-1.756.45-3.305 1.392-4.617 2.798l-1.804 1.937-.261-2.634c-.165-1.667-.856-1.864-1.116-1.938l-.051-.016a10.018 10.018 0 0 0-2.514-.463c-.519 1.474-1.166 3.025-2.021 4.842-1.147 2.343-2.408 5.485-3.753 9.349-1.24 3.583-1.355 6.41-.345 8.4.436.755 1.028 1.174 1.85 1.296.753.067 1.443.081 2.08.04-.253-2.803.23-5.73 1.44-8.71 1.405-3.457 3.038-6.352 4.853-8.606 1.638-2.012 2.245-2.63 2.822-2.88l.075-.028c.804-.268 1.302.108 1.48.282.653.639.368 1.573.23 2.021l-.023.066c-.269.696-.686 1.606-1.28 2.796-.73 2.142-.111 2.991.51 3.492a11.16 11.16 0 0 0 2.959 1.541c.047-.881.219-1.75.512-2.588.395-1.193.919-2.459 1.646-3.975a31.291 31.291 0 0 0 1.376-3.119c.372-1.297.64-3.015-.255-3.626Zm29.917-.267h-.004c-1.505-.488-3.205-.161-5.049.968-.888.617-1.671 1.28-2.3 1.956l-1.866 2.005-.201-2.732c-.136-1.83-.895-2.269-1.993-2.366-1.618-.143-3.1.23-4.539 1.138a14.195 14.195 0 0 0-2.327 1.872l-1.769 1.767-.265-2.487c-.162-1.516-.869-1.752-1.17-1.854a11.06 11.06 0 0 0-2.418-.406 73.44 73.44 0 0 1-2.113 5.16c-1.575 3.427-2.855 6.713-3.913 10.05-.983 3.101-1.078 5.561-.282 7.31.57.693 1.262 1.08 2.058 1.154l.058.006a9.288 9.288 0 0 0 1.992.053c-.27-2.597.192-5.349 1.408-8.392 1.294-3.323 2.847-6.14 4.615-8.368a5.66 5.66 0 0 1 .193-.269c.095-.128.207-.279.319-.446.18-.254.348-.453.509-.645.151-.178.279-.329.392-.485l.038-.05a6.64 6.64 0 0 1 .649-.673c.078-.072.144-.133.205-.194l.101-.09c.489-.37.948-.47 1.399-.33.414.131.731.456.873.89l.058.262v.108c0 .352-.073.947-.421 1.782l-.036.076c-1.141 2.177-2.225 4.905-3.23 8.128-.968 3.007-1.076 5.526-.322 7.492.595.664 1.277 1.03 2.138 1.15.713.066 1.395.08 2.028.04-.251-2.693.197-5.508 1.334-8.375 1.302-3.283 2.858-6.103 4.625-8.383.101-.137.408-.53.921-1.047.126-.125.244-.25.358-.37.245-.257.499-.524.771-.752l.143-.105c.503-.357 1.122-.797 1.864-.434 1.14.578.635 1.782.302 2.58l-.022.05c-.271.601-.528 1.168-.79 1.847l-.03.07c-1.063 2.227-2.001 4.792-2.796 7.637-.722 2.406-.713 4.444.025 6.066.592.67 1.285 1.054 2.116 1.176.735.065 1.407.08 2.023.04-.195-2.076.014-4.137.633-6.285a66.117 66.117 0 0 1 2.694-7.407 59.317 59.317 0 0 0 2.299-6.352c.527-2.966-.742-3.365-1.285-3.536Zm-61.407-.263-1.705-.106.683-1.566c1.523-3.49 2.373-6.301 2.598-8.594l.124-1.264 1.254.2c2.313.367 4.236.517 6.048.473 1.706 0 2.95-.44 3.814-1.343.55-.601.592-1.927.122-3.755-3.926 1.232-7.924 1.35-12.203.362a26.494 26.494 0 0 0-4.762-.556c-5.02-.129-9.76 1.855-13 5.448l-.068.074c-2.308 2.492-3.588 5.314-3.81 8.395-.1 2.1.937 3.773 3.166 5.087.37-3.41 1.536-6.56 3.552-9.603 2.456-3.658 6.056-5.402 10.695-5.184l.77.036.285.717c.317.797.248 1.847-.217 3.304-.437 1.364-.982 2.697-1.458 3.822l-.394.9a88.86 88.86 0 0 1-.562 1.274l-.687 1.454-.823-.064c-2.329-.18-3.965.122-4.997.925-.707.525-1.084 1.525-1.132 2.981.89-.218 2.022-.324 3.431-.324h1.934l-.864 1.73c-.713 1.428-1.554 3.291-2.664 5.767-.968 2.426-1.719 4.74-2.286 7.05-.472 2.112-.438 3.765.103 4.904.55.933 1.774 1.375 3.736 1.341-.176-2.22.252-4.885 1.302-8.122a129.171 129.171 0 0 1 3.608-9.637l.249-.573c.201-.46.385-.882.512-1.232l.286-.793 1.227.02c1.624.264 3.175.28 4.61.05 1.086-.212 1.875-1.003 2.396-2.415a7.32 7.32 0 0 0 .327-1.463c-1.28.326-2.992.417-5.2.28Z"/></svg>