<svg xmlns="http://www.w3.org/2000/svg" width="1668" height="872" fill="none"><circle cx="436" cy="183" r="12" fill="#C19CFC"/><path stroke="#E40173" stroke-width="8" d="M1455 843.8c0 13-10.7 23.5-24 23.5s-24-10.5-24-23.5c0-12.9 10.7-23.5 24-23.5s24 10.6 24 23.5Z"/><path stroke="#00A7E5" stroke-linecap="round" stroke-linejoin="round" stroke-width="8" d="m1306.1 344.6 20.5-5.4-5.5-20.5 20.5-5.5-5.5-20.5 20.5-5.5"/><path stroke="#FFB8B8" stroke-linecap="round" stroke-linejoin="round" stroke-width="4" d="m1503 630.5 1 9 9-1 1 8.9 9-1 1 8.9"/><path stroke="#E2A21F" stroke-width="8" d="M1207 134.8a38.5 38.5 0 0 1 63.5.6"/><path fill="#D9DBE9" d="M250 784h40v40h-40z"/><path fill="#00CC67" d="m448 .3 20.8 36h-41.6L448 .3Z"/><path fill="#D9DBE9" d="m192 234 24.2 14v28L192 290l-24.2-14v-28l24.2-14Z"/><path fill="#A8FFEF" d="m1640 376 24.3 14v28l-24.3 14-24.3-14v-28l24.3-14Z"/><path fill="#92CAFF" d="m11 474 9.5 5.5v11L11 496l-9.5-5.5v-11L11 474Z"/></svg>